<svg width="532" height="184" viewBox="0 0 532 184" fill="none" xmlns="http://www.w3.org/2000/svg">
<g clip-path="url(#clip0_2147_825)">
<path d="M138.127 127.729L121.838 137.129C120.663 137.737 119.245 137.737 118.111 137.089L61.6687 104.472C60.6152 103.905 59.9669 102.77 59.9669 101.595V82.5514C59.9669 81.2143 59.2376 79.9583 58.1031 79.31L45.5424 72.0572C43.0708 70.6391 39.9509 72.4219 39.9509 75.2987V112.94C39.9509 114.277 40.6803 115.533 41.8148 116.182L118.07 160.265C119.245 160.914 120.663 160.914 121.798 160.265L158.061 139.317C159.196 138.629 159.925 137.413 159.925 136.076V47.9084C159.925 46.5713 159.196 45.3152 158.061 44.6669L81.8468 0.583142C80.6717 -0.0651489 79.2536 -0.0651489 78.1191 0.583142L65.5584 7.8359C63.0868 9.25403 63.0868 12.8602 65.5584 14.2783L138.127 56.2146C139.261 56.9034 139.99 58.119 139.99 59.4561V124.488C139.99 125.825 139.261 127.081 138.127 127.729ZM98.0945 79.3505C99.229 79.9988 99.9584 81.2143 99.9584 82.5514V97.138C99.9584 99.9743 103.078 101.757 105.55 100.339L118.111 93.0862C119.245 92.3974 119.974 91.1818 119.974 89.8447V71.0443C119.974 69.7072 119.245 68.4511 118.111 67.8028L41.8553 23.719C40.6803 23.0707 39.2621 23.0707 38.1276 23.719L1.86384 44.6669C0.729327 45.3557 0 46.5713 0 47.9084V136.076C0 137.413 0.729327 138.669 1.86384 139.317L78.1191 183.401C79.2941 184.05 80.7122 184.05 81.8468 183.401L94.4074 176.148C96.879 174.73 96.879 171.124 94.4074 169.706L21.8393 127.77C20.7048 127.081 19.9755 125.865 19.9755 124.528V59.4561C19.9755 58.119 20.7048 56.8629 21.8393 56.2146L38.1276 46.8144C39.3026 46.1661 40.7208 46.1661 41.8553 46.8144L98.0945 79.3505Z" fill="url(#paint0_linear_2147_825)"/>
<path d="M304.21 47.2197H283.222C274.105 47.2197 266.447 54.9182 266.447 64.0348V101.879H279.048V87.8595H308.424V101.879H321.025V63.9537C320.782 54.7156 313.246 47.2197 304.251 47.2197H304.21ZM279.008 64.0348C279.008 61.7252 280.912 59.8209 283.222 59.8209H304.21C306.52 59.8209 308.424 61.7252 308.424 64.0348V75.2583H279.048V64.0348H279.008Z" fill="#242422"/>
<path d="M241.367 47.2197L220.419 68.2487H213.207V47.2197H200.605V101.879H213.207V80.8498H220.419L241.367 101.879H259.154L231.845 74.529L259.154 47.2197H241.367Z" fill="#242422"/>
<path d="M518.348 85.0637C518.348 87.3732 516.444 89.2776 514.135 89.2776H493.146C490.837 89.2776 488.932 87.3732 488.932 85.0637V64.0348C488.932 61.7252 490.837 59.8209 493.146 59.8209H514.135C516.444 59.8209 518.348 61.7252 518.348 64.0348V66.8305H531.031L530.95 63.9537C530.706 54.7156 523.17 47.2197 514.175 47.2197H493.106C483.705 47.4628 476.412 54.8777 476.412 64.0348V85.0637C476.412 94.3424 483.948 101.879 493.187 101.879H514.175C523.292 101.879 530.95 94.1803 530.95 85.0637V82.268H518.348V85.0637Z" fill="#242422"/>
<path d="M421.795 81.6197V47.2197H409.193V101.879H420.255L451.17 66.871V101.879H463.812V47.2197H452.75L421.795 81.6197Z" fill="#242422"/>
<path d="M392.379 47.2197H354.575C345.459 47.2197 337.801 54.9182 337.801 64.0348V89.2776H330.791V101.879H399.388V89.2776H392.379V47.2197ZM379.778 59.8209V89.2371H350.402V63.9943C350.402 61.6847 352.306 59.7804 354.616 59.7804H379.778V59.8209Z" fill="#242422"/>
<path d="M205.833 136.724C204.86 136.724 203.888 136.562 202.916 136.279C201.943 135.954 201.214 135.549 200.687 134.982L201.578 133.078C202.146 133.564 202.753 133.969 203.483 134.212C204.212 134.496 204.941 134.617 205.671 134.617C206.927 134.617 207.98 134.253 208.71 133.564C209.479 132.835 209.966 131.822 210.128 130.484H203.321V128.378H210.128C209.966 127.243 209.52 126.311 208.791 125.541C208.102 124.812 207.048 124.447 205.63 124.447C204.941 124.447 204.212 124.569 203.483 124.812C202.753 125.055 202.105 125.46 201.538 125.946L200.646 124.042C201.254 123.515 202.024 123.11 202.956 122.786C203.888 122.462 204.86 122.3 205.792 122.3C207.98 122.3 209.682 122.948 210.938 124.204C212.194 125.46 212.842 127.202 212.842 129.431C212.842 130.93 212.559 132.227 211.992 133.361C211.424 134.455 210.614 135.266 209.52 135.873C208.466 136.481 207.21 136.765 205.752 136.765H205.833V136.724ZM216.449 136.441V122.502H219.325V128.134H226.254V122.502H229.131V136.441H226.254V130.403H219.325V136.441H216.449ZM239.99 136.684C237.721 136.684 235.897 136.035 234.601 134.779C233.304 133.483 232.615 131.741 232.615 129.512C232.615 128.094 232.899 126.838 233.466 125.744C234.074 124.65 234.884 123.799 235.897 123.191C236.91 122.583 238.126 122.259 239.422 122.259C241.327 122.259 242.866 122.867 243.96 124.123C245.054 125.339 245.622 127.04 245.622 129.188V130.16H235.411C235.614 133.037 237.153 134.496 239.99 134.496C240.8 134.496 241.57 134.374 242.34 134.131C243.11 133.888 243.839 133.483 244.528 132.916L245.379 134.901C244.73 135.468 243.96 135.914 242.947 136.238C241.975 136.562 240.962 136.724 239.949 136.724L239.99 136.684ZM239.544 124.204C238.328 124.204 237.396 124.569 236.708 125.298C236.019 126.027 235.573 127.04 235.411 128.256H243.191C243.191 126.959 242.785 125.946 242.178 125.258C241.529 124.528 240.678 124.164 239.544 124.164V124.204ZM249.066 141.546V122.462H251.902V124.852C252.307 124.042 252.915 123.434 253.725 122.948C254.536 122.462 255.468 122.219 256.562 122.219C257.818 122.219 258.871 122.502 259.803 123.11C260.735 123.718 261.464 124.528 261.951 125.622C262.477 126.676 262.72 127.972 262.72 129.431C262.72 130.89 262.477 132.186 261.951 133.28C261.464 134.374 260.735 135.185 259.803 135.792C258.871 136.36 257.818 136.643 256.562 136.643C255.549 136.643 254.617 136.441 253.806 135.995C252.996 135.549 252.388 134.901 251.983 134.131V141.546H249.066ZM255.832 134.415C257.048 134.415 257.98 133.969 258.669 133.118C259.398 132.267 259.763 131.011 259.763 129.39C259.763 127.77 259.398 126.554 258.669 125.703C257.98 124.852 257.007 124.407 255.832 124.407C254.657 124.407 253.685 124.852 252.955 125.703C252.267 126.554 251.902 127.77 251.902 129.39C251.902 131.011 252.267 132.227 252.955 133.118C253.685 133.969 254.657 134.415 255.832 134.415ZM266.205 136.4V122.462H276.334V124.771H269.122V136.4H266.205ZM278.928 136.4V122.462H281.561V132.591L289.098 122.462H291.529V136.4H288.895V126.311L281.359 136.4H278.928ZM294.689 136.4L296.796 132.753C297.363 131.781 298.052 131.092 298.984 130.768C297.809 130.565 296.918 130.12 296.269 129.472C295.621 128.783 295.337 127.851 295.337 126.716C295.337 125.42 295.783 124.407 296.634 123.637C297.525 122.867 298.822 122.462 300.564 122.462H307.209V136.4H304.535V131.335H302.752C302.104 131.335 301.496 131.497 301.051 131.862C300.564 132.186 300.2 132.632 299.876 133.159L298.012 136.4H294.689ZM301.132 129.35H304.495V124.447H301.132C300.078 124.447 299.308 124.65 298.822 125.096C298.336 125.501 298.093 126.108 298.093 126.878C298.093 127.648 298.336 128.256 298.822 128.702C299.308 129.147 300.078 129.35 301.132 129.35ZM319 136.4V122.462H331.642V136.4H328.765V124.771H321.917V136.4H319ZM335.937 141.546V122.462H338.773V124.852C339.178 124.042 339.786 123.434 340.596 122.948C341.407 122.462 342.339 122.219 343.433 122.219C344.689 122.219 345.742 122.502 346.674 123.11C347.606 123.718 348.335 124.528 348.822 125.622C349.348 126.676 349.591 127.972 349.591 129.431C349.591 130.89 349.348 132.186 348.822 133.28C348.335 134.374 347.606 135.185 346.674 135.792C345.742 136.36 344.689 136.643 343.433 136.643C342.42 136.643 341.488 136.441 340.677 135.995C339.867 135.549 339.259 134.901 338.854 134.131V141.546H335.937ZM342.703 134.415C343.919 134.415 344.851 133.969 345.54 133.118C346.269 132.267 346.634 131.011 346.634 129.39C346.634 127.77 346.269 126.554 345.54 125.703C344.851 124.852 343.878 124.407 342.703 124.407C341.528 124.407 340.556 124.852 339.826 125.703C339.138 126.554 338.773 127.77 338.773 129.39C338.773 131.011 339.138 132.227 339.826 133.118C340.556 133.969 341.528 134.415 342.703 134.415ZM357.573 136.643C356.601 136.643 355.75 136.441 354.98 136.076C354.21 135.711 353.603 135.185 353.157 134.536C352.711 133.888 352.509 133.159 352.509 132.348C352.509 131.335 352.752 130.525 353.279 129.917C353.805 129.309 354.697 128.904 355.872 128.621C357.087 128.337 358.708 128.215 360.774 128.215H361.747V127.486C361.747 126.392 361.504 125.622 361.058 125.136C360.612 124.65 359.842 124.407 358.789 124.407C357.979 124.407 357.209 124.528 356.398 124.771C355.588 125.015 354.778 125.379 353.927 125.865L353.035 123.839C353.765 123.313 354.656 122.908 355.75 122.624C356.844 122.3 357.857 122.178 358.87 122.178C360.774 122.178 362.193 122.624 363.084 123.556C364.016 124.447 364.462 125.865 364.462 127.77V136.36H361.747V134.05C361.423 134.86 360.855 135.468 360.167 135.954C359.437 136.4 358.586 136.643 357.573 136.643ZM358.141 134.577C359.154 134.577 360.045 134.212 360.693 133.483C361.382 132.753 361.706 131.862 361.706 130.728V129.958H360.774C359.397 129.958 358.303 130.039 357.492 130.16C356.723 130.282 356.155 130.525 355.791 130.849C355.466 131.173 355.304 131.578 355.304 132.146C355.304 132.875 355.548 133.442 356.034 133.928C356.52 134.374 357.209 134.577 358.1 134.577H358.141ZM368.756 136.36V122.421H375.888C377.589 122.421 378.846 122.745 379.615 123.394C380.426 124.042 380.831 124.933 380.831 126.068C380.831 126.797 380.628 127.446 380.183 127.972C379.777 128.499 379.21 128.904 378.521 129.147C379.413 129.35 380.061 129.755 380.547 130.363C381.033 130.971 381.277 131.659 381.277 132.47C381.277 133.685 380.831 134.617 379.939 135.306C379.048 135.995 377.752 136.319 376.131 136.319H368.756V136.36ZM371.471 128.378H375.685C376.455 128.378 377.063 128.215 377.468 127.851C377.914 127.486 378.116 127 378.116 126.352C378.116 125.703 377.914 125.217 377.468 124.852C377.063 124.528 376.455 124.326 375.685 124.326H371.471V128.337V128.378ZM371.471 134.577H375.928C377.711 134.577 378.602 133.847 378.602 132.389C378.602 130.93 377.711 130.241 375.928 130.241H371.471V134.536V134.577ZM390.677 136.724C389.259 136.724 388.043 136.441 387.03 135.833C386.017 135.225 385.207 134.415 384.64 133.361C384.072 132.267 383.829 130.971 383.829 129.512C383.829 128.053 384.113 126.757 384.64 125.703C385.207 124.609 386.017 123.799 387.03 123.191C388.043 122.583 389.259 122.3 390.677 122.3C392.095 122.3 393.229 122.583 394.283 123.191C395.296 123.799 396.106 124.609 396.674 125.703C397.241 126.757 397.524 128.053 397.524 129.512C397.524 130.971 397.241 132.267 396.674 133.361C396.106 134.415 395.296 135.266 394.283 135.833C393.27 136.441 392.054 136.724 390.677 136.724ZM390.677 134.496C391.852 134.496 392.824 134.05 393.513 133.199C394.202 132.348 394.607 131.092 394.607 129.472C394.607 127.851 394.242 126.635 393.513 125.784C392.784 124.933 391.852 124.488 390.677 124.488C389.502 124.488 388.529 124.933 387.8 125.784C387.071 126.635 386.706 127.851 386.706 129.472C386.706 131.092 387.071 132.308 387.8 133.199C388.529 134.091 389.502 134.496 390.677 134.496ZM401.09 136.481V122.543H408.221C409.923 122.543 411.179 122.867 411.949 123.515C412.759 124.164 413.164 125.055 413.164 126.19C413.164 126.919 412.962 127.567 412.516 128.094C412.111 128.621 411.544 129.026 410.855 129.269C411.746 129.471 412.395 129.877 412.881 130.484C413.367 131.092 413.61 131.781 413.61 132.591C413.61 133.807 413.164 134.739 412.273 135.428C411.382 136.116 410.085 136.441 408.464 136.441H401.09V136.481ZM403.805 128.499H408.019C408.788 128.499 409.396 128.337 409.801 127.972C410.247 127.608 410.45 127.121 410.45 126.473C410.45 125.825 410.247 125.339 409.801 124.974C409.396 124.65 408.788 124.447 408.019 124.447H403.805V128.459V128.499ZM403.805 134.698H408.262C410.045 134.698 410.936 133.969 410.936 132.51C410.936 131.052 410.045 130.363 408.262 130.363H403.805V134.658V134.698ZM423.01 136.846C421.592 136.846 420.377 136.562 419.364 135.954C418.351 135.347 417.54 134.536 416.973 133.483C416.406 132.389 416.163 131.092 416.163 129.634C416.163 128.175 416.446 126.878 416.973 125.825C417.54 124.731 418.351 123.921 419.364 123.313C420.377 122.705 421.592 122.421 423.01 122.421C424.428 122.421 425.563 122.705 426.616 123.313C427.629 123.921 428.44 124.731 429.007 125.825C429.574 126.878 429.858 128.175 429.858 129.634C429.858 131.092 429.574 132.389 429.007 133.483C428.44 134.536 427.629 135.387 426.616 135.954C425.604 136.562 424.388 136.846 423.01 136.846ZM423.01 134.617C424.185 134.617 425.158 134.172 425.847 133.321C426.576 132.47 426.941 131.214 426.941 129.593C426.941 127.972 426.576 126.757 425.847 125.906C425.117 125.055 424.185 124.609 423.01 124.609C421.835 124.609 420.863 125.055 420.134 125.906C419.404 126.757 419.04 127.972 419.04 129.593C419.04 131.214 419.404 132.429 420.134 133.321C420.863 134.172 421.835 134.617 423.01 134.617ZM433.424 136.603V122.664H443.553V124.974H436.341V136.603H433.424ZM452.183 136.846C450.765 136.846 449.55 136.562 448.537 135.954C447.524 135.347 446.713 134.536 446.146 133.483C445.579 132.389 445.336 131.092 445.336 129.634C445.336 128.175 445.619 126.878 446.146 125.825C446.713 124.731 447.524 123.921 448.537 123.313C449.55 122.705 450.765 122.421 452.183 122.421C453.602 122.421 454.736 122.705 455.79 123.313C456.802 123.921 457.613 124.731 458.18 125.825C458.747 126.878 459.031 128.175 459.031 129.634C459.031 131.092 458.747 132.389 458.18 133.483C457.613 134.536 456.802 135.387 455.79 135.954C454.777 136.562 453.561 136.846 452.183 136.846ZM452.183 134.617C453.358 134.617 454.331 134.172 455.02 133.321C455.749 132.47 456.114 131.214 456.114 129.593C456.114 127.972 455.749 126.757 455.02 125.906C454.29 125.055 453.358 124.609 452.183 124.609C451.008 124.609 450.036 125.055 449.307 125.906C448.577 126.757 448.213 127.972 448.213 129.593C448.213 131.214 448.577 132.429 449.307 133.321C450.036 134.172 451.008 134.617 452.183 134.617ZM470.052 136.603V122.664H482.694V136.603H479.817V124.974H472.969V136.603H470.052ZM493.026 136.846C491.608 136.846 490.392 136.562 489.379 135.954C488.366 135.347 487.556 134.536 486.989 133.483C486.421 132.389 486.178 131.092 486.178 129.634C486.178 128.175 486.462 126.878 486.989 125.825C487.556 124.731 488.366 123.921 489.379 123.313C490.392 122.705 491.608 122.421 493.026 122.421C494.444 122.421 495.578 122.705 496.632 123.313C497.645 123.921 498.455 124.731 499.022 125.825C499.59 126.878 499.873 128.175 499.873 129.634C499.873 131.092 499.59 132.389 499.022 133.483C498.455 134.536 497.645 135.387 496.632 135.954C495.619 136.562 494.403 136.846 493.026 136.846ZM493.026 134.617C494.201 134.617 495.173 134.172 495.862 133.321C496.591 132.47 496.956 131.214 496.956 129.593C496.956 127.972 496.591 126.757 495.862 125.906C495.133 125.055 494.201 124.609 493.026 124.609C491.851 124.609 490.878 125.055 490.149 125.906C489.42 126.757 489.055 127.972 489.055 129.593C489.055 131.214 489.42 132.429 490.149 133.321C490.878 134.172 491.851 134.617 493.026 134.617ZM502.548 136.967L501.575 134.698C502.426 134.374 503.074 133.888 503.56 133.28C504.047 132.672 504.371 131.822 504.573 130.768C504.776 129.674 504.898 128.296 504.898 126.554V122.624H515.513V136.562H512.637V124.933H507.572V126.635C507.572 128.742 507.41 130.484 507.045 131.862C506.721 133.24 506.154 134.374 505.424 135.185C504.695 135.995 503.723 136.562 502.548 136.967ZM518.674 136.603L520.781 132.956C521.348 131.984 522.037 131.295 522.969 130.971C521.794 130.768 520.902 130.322 520.254 129.674C519.606 128.985 519.322 128.053 519.322 126.919C519.322 125.622 519.768 124.609 520.619 123.839C521.51 123.07 522.807 122.664 524.549 122.664H531.194V136.603H528.52V131.538H526.737C526.089 131.538 525.481 131.7 525.035 132.065C524.549 132.389 524.184 132.835 523.86 133.361L521.996 136.603H518.674ZM525.116 129.553H528.479V124.65H525.116C524.063 124.65 523.293 124.852 522.807 125.298C522.32 125.703 522.077 126.311 522.077 127.081C522.077 127.851 522.32 128.459 522.807 128.904C523.293 129.35 524.063 129.553 525.116 129.553Z" fill="#242422"/>
</g>
<defs>
<linearGradient id="paint0_linear_2147_825" x1="39.9104" y1="161.319" x2="120.015" y2="22.625" gradientUnits="userSpaceOnUse">
<stop stop-color="#5C63AB"/>
<stop offset="0.49" stop-color="#7F5EA5"/>
<stop offset="1" stop-color="#CBB6D9"/>
</linearGradient>
<clipPath id="clip0_2147_825">
<rect width="531.112" height="183.75" fill="white" transform="translate(0 0.0969238)"/>
</clipPath>
</defs>
</svg>
